<?xml version="1.0" encoding="utf-8"?>
<!-- Generator: Adobe Illustrator 21.1.0, SVG Export Plug-In . SVG Version: 6.00 Build 0)  -->
<svg version="1.1" id="Layer_1" xmlns="http://www.w3.org/2000/svg" xmlns:xlink="http://www.w3.org/1999/xlink" x="0px" y="0px"
	 viewBox="0 0 80 80" style="enable-background:new 0 0 80 80;" xml:space="preserve">
<style type="text/css">
	.arrows{fill:#FFFFFF;}
	.bg{fill:#00C8FF;stroke:none;}
</style>
<g>
	<circle cx="40" cy="40" r="40" class="bg"/>
	<g>
		<path class="arrows" d="M26.5,28.5c4.6,0,7.5,4.2,10.1,9.3c0.7-1.4,1.4-2.8,2.2-4.2c-2.9-4.9-6.5-9-12.3-9c-1.1,0-2,0.9-2,2
			S25.4,28.5,26.5,28.5z"/>
		<path class="arrows" d="M55.5,53.3c0-0.1,0-0.1,0-0.2c0,0,0,0,0,0c0-0.1-0.1-0.2-0.1-0.3c0,0,0,0,0,0l-2.9-6.5
			c-0.3-0.7-1-1.2-1.9-1.2c-0.8,0-1.5,0.5-1.8,1.3l-0.9,2.5c-1.6-1.7-3-4-4.4-6.6c-0.7,1.4-1.4,2.8-2.2,4.2c1.4,2.5,3.1,4.7,5.1,6.4
			l-1.1,2.9c-0.3,0.8-0.1,1.6,0.5,2.2c0.4,0.4,0.9,0.5,1.4,0.5c0.3,0,0.6-0.1,0.8-0.2l6.5-2.9c0.3-0.2,0.6-0.4,0.8-0.7c0,0,0,0,0,0
			c0.1-0.1,0.1-0.2,0.1-0.3c0,0,0-0.1,0-0.1c0-0.1,0.1-0.2,0.1-0.3c0,0,0-0.1,0-0.1c0-0.1,0-0.2,0-0.3c0,0,0-0.1,0-0.1c0,0,0,0,0,0
			C55.5,53.4,55.5,53.4,55.5,53.3z"/>
	</g>
	<path class="arrows" d="M55.5,26.9c0-0.1,0-0.1,0-0.2c0-0.1,0-0.1,0-0.2c0,0,0,0,0,0c0,0,0-0.1,0-0.1c0-0.1,0-0.2,0-0.3
		c0,0,0-0.1,0-0.1c0-0.1,0-0.2-0.1-0.3c0,0,0-0.1,0-0.1c0-0.1-0.1-0.2-0.1-0.3c0,0,0,0,0,0c-0.2-0.3-0.5-0.5-0.8-0.7l-6.5-2.9
		c-0.7-0.3-1.6-0.2-2.2,0.4c-0.6,0.6-0.8,1.4-0.5,2.2l1.1,2.9c-3.5,2.9-5.9,7.6-8,11.9C35,45.5,32,51.5,26.5,51.5c-1.1,0-2,0.9-2,2
		s0.9,2,2,2c8,0,11.9-7.8,15.3-14.6c1.9-3.7,3.7-7.4,6-9.7l0.9,2.5c0.3,0.8,1,1.3,1.8,1.3c0,0,0,0,0.1,0c0.8,0,1.5-0.5,1.8-1.2
		l2.9-6.5C55.4,27.2,55.4,27.1,55.5,26.9C55.4,27,55.4,26.9,55.5,26.9z"/>
</g>
</svg>
